<svg width="72" height="90" viewBox="0 0 72 90" fill="none" xmlns="http://www.w3.org/2000/svg">
<path d="M70.4369 86.7297V3.26724C71.2605 3.18102 71.9027 2.48478 71.9027 1.63823C71.9027 0.733515 71.1692 0 70.2645 0H1.73545C0.830742 0 0.0972268 0.733515 0.0972268 1.63823C0.0972268 2.52512 0.802483 3.24553 1.68241 3.27379V86.7235C0.777705 86.7235 0.0441895 87.4571 0.0441895 88.3618C0.0441895 89.2665 0.777705 90 1.68241 90H70.3173C71.222 90 71.9555 89.2665 71.9555 88.3618C71.9555 87.4972 71.2855 86.7909 70.4369 86.7297ZM4.95907 3.27645H67.1604V86.7235H24.5836V67.0818C24.5836 66.1771 23.8501 65.4436 22.9453 65.4436H9.91634C9.01163 65.4436 8.27811 66.1771 8.27811 67.0818V86.7235H4.95907V3.27645ZM11.5546 78.5019C11.9592 78.4825 12.3493 78.3135 12.6362 78.0266C12.9411 77.7215 13.1154 77.2997 13.1154 76.8696C13.1154 76.4375 12.9411 76.0157 12.6362 75.7106C12.3493 75.4239 11.959 75.2547 11.5546 75.2353V68.7203H21.3071V86.7235H11.5546V78.5019Z" fill="#2C237D"/>
<path d="M29.6006 80.1195H42.7064C43.6111 80.1195 44.3447 79.3859 44.3447 78.4812V67.0818C44.3447 66.1771 43.6111 65.4436 42.7064 65.4436H29.6006C28.6959 65.4436 27.9624 66.1771 27.9624 67.0818V78.4812C27.9624 79.3859 28.6959 80.1195 29.6006 80.1195ZM41.0682 76.843H37.7918V68.7201H41.0682V76.843ZM31.2389 68.7201H34.5153V76.843H31.2389V68.7201Z" fill="#2C237D"/>
<path d="M49.3106 80.1195H62.4164C63.3211 80.1195 64.0546 79.3859 64.0546 78.4812V67.0818C64.0546 66.1771 63.3211 65.4436 62.4164 65.4436H49.3106C48.4059 65.4436 47.6724 66.1771 47.6724 67.0818V78.4812C47.6724 79.3859 48.4059 80.1195 49.3106 80.1195ZM60.7782 76.843H57.5017V68.7201H60.7782V76.843ZM50.9488 68.7201H54.2253V76.843H50.9488V68.7201Z" fill="#2C237D"/>
<path d="M29.6006 60.4608H42.7064C43.6111 60.4608 44.3447 59.7272 44.3447 58.8225V47.4231C44.3447 46.5184 43.6111 45.7849 42.7064 45.7849H29.6006C28.6959 45.7849 27.9624 46.5184 27.9624 47.4231V58.8225C27.9624 59.7272 28.6959 60.4608 29.6006 60.4608ZM41.0682 57.1843H37.7918V49.0614H41.0682V57.1843ZM31.2389 49.0614H34.5153V57.1843H31.2389V49.0614Z" fill="#2C237D"/>
<path d="M9.87785 60.4608H22.9837C23.8884 60.4608 24.6219 59.7272 24.6219 58.8225V47.4231C24.6219 46.5184 23.8884 45.7849 22.9837 45.7849H9.87785C8.97314 45.7849 8.23962 46.5184 8.23962 47.4231V58.8225C8.23962 59.7272 8.97314 60.4608 9.87785 60.4608ZM21.3454 57.1843H18.069V49.0614H21.3454V57.1843ZM11.5161 49.0614H14.7925V57.1843H11.5161V49.0614Z" fill="#2C237D"/>
<path d="M49.3106 60.4608H62.4164C63.3211 60.4608 64.0546 59.7272 64.0546 58.8225V47.4231C64.0546 46.5184 63.3211 45.7849 62.4164 45.7849H49.3106C48.4059 45.7849 47.6724 46.5184 47.6724 47.4231V58.8225C47.6724 59.7272 48.4059 60.4608 49.3106 60.4608ZM60.7782 57.1843H57.5017V49.0614H60.7782V57.1843ZM50.9488 49.0614H54.2253V57.1843H50.9488V49.0614Z" fill="#2C237D"/>
<path d="M29.6006 40.8702H42.7064C43.6111 40.8702 44.3447 40.1367 44.3447 39.232V27.8326C44.3447 26.9279 43.6111 26.1944 42.7064 26.1944H29.6006C28.6959 26.1944 27.9624 26.9279 27.9624 27.8326V39.232C27.9624 40.1369 28.6959 40.8702 29.6006 40.8702ZM41.0682 37.5938H37.7918V29.4708H41.0682V37.5938ZM31.2389 29.4711H34.5153V37.594H31.2389V29.4711Z" fill="#2C237D"/>
<path d="M9.87785 40.8702H22.9837C23.8884 40.8702 24.6219 40.1367 24.6219 39.232V27.8326C24.6219 26.9279 23.8884 26.1944 22.9837 26.1944H9.87785C8.97314 26.1944 8.23962 26.9279 8.23962 27.8326V39.232C8.23962 40.1369 8.97314 40.8702 9.87785 40.8702ZM21.3454 37.5938H18.069V29.4708H21.3454V37.5938ZM11.5161 29.4711H14.7925V37.594H11.5161V29.4711Z" fill="#2C237D"/>
<path d="M49.3106 40.8702H62.4164C63.3211 40.8702 64.0546 40.1367 64.0546 39.232V27.8326C64.0546 26.9279 63.3211 26.1944 62.4164 26.1944H49.3106C48.4059 26.1944 47.6724 26.9279 47.6724 27.8326V39.232C47.6724 40.1369 48.4059 40.8702 49.3106 40.8702ZM60.7782 37.5938H57.5017V29.4708H60.7782V37.5938ZM50.9488 29.4711H54.2253V37.594H50.9488V29.4711Z" fill="#2C237D"/>
<path d="M29.6006 21.2115H42.7064C43.6111 21.2115 44.3447 20.478 44.3447 19.5733V8.17414C44.3447 7.26943 43.6111 6.53591 42.7064 6.53591H29.6006C28.6959 6.53591 27.9624 7.26943 27.9624 8.17414V19.5735C27.9624 20.478 28.6959 21.2115 29.6006 21.2115ZM41.0682 17.9351H37.7918V9.81236H41.0682V17.9351ZM31.2389 9.81236H34.5153V17.9353H31.2389V9.81236Z" fill="#2C237D"/>
<path d="M9.87785 21.2115H22.9837C23.8884 21.2115 24.6219 20.478 24.6219 19.5733V8.17414C24.6219 7.26943 23.8884 6.53591 22.9837 6.53591H9.87785C8.97314 6.53591 8.23962 7.26943 8.23962 8.17414V19.5735C8.23962 20.478 8.97314 21.2115 9.87785 21.2115ZM21.3454 17.9351H18.069V9.81236H21.3454V17.9351ZM11.5161 9.81236H14.7925V17.9353H11.5161V9.81236Z" fill="#2C237D"/>
<path d="M49.3106 21.2115H62.4164C63.3211 21.2115 64.0546 20.478 64.0546 19.5733V8.17414C64.0546 7.26943 63.3211 6.53591 62.4164 6.53591H49.3106C48.4059 6.53591 47.6724 7.26943 47.6724 8.17414V19.5735C47.6724 20.478 48.4059 21.2115 49.3106 21.2115ZM60.7782 17.9351H57.5017V9.81236H60.7782V17.9351ZM50.9488 9.81236H54.2253V17.9353H50.9488V9.81236Z" fill="#2C237D"/>
</svg>
