<svg width="13" height="13" viewBox="0 0 13 13" fill="none" xmlns="http://www.w3.org/2000/svg">
<path d="M11.9141 12.5547L12.4766 10.1172C12.5078 9.99219 12.4922 9.86719 12.4297 9.74219C12.3672 9.61719 12.2812 9.53125 12.1719 9.48437L9.54687 8.35937C9.42187 8.3125 9.29687 8.30469 9.17187 8.33594C9.0625 8.36719 8.96875 8.42969 8.89062 8.52344L7.71875 9.92969C6.8125 9.50781 6 8.9375 5.28125 8.21875C4.5625 7.51562 3.99219 6.70312 3.57031 5.78125L4.97656 4.63281C5.08594 4.55469 5.14844 4.45312 5.16406 4.32812C5.19531 4.20312 5.1875 4.08594 5.14062 3.97656L4.01562 1.35156C3.96875 1.22656 3.88281 1.13281 3.75781 1.07031C3.63281 1.00781 3.50781 0.992187 3.38281 1.02344L0.945312 1.58594C0.804687 1.60156 0.695312 1.66406 0.617187 1.77344C0.539062 1.88281 0.5 2 0.5 2.125C0.5 4.09375 0.992187 5.92187 1.97656 7.60937C2.94531 9.25 4.25 10.5547 5.89062 11.5234C7.57812 12.5078 9.40625 13 11.375 13C11.5 13 11.6172 12.9609 11.7266 12.8828C11.8359 12.8047 11.8984 12.6953 11.9141 12.5547Z" fill="#3F3F3F"/>
</svg>
