<svg width="65" height="59" viewBox="0 0 65 59" fill="none" xmlns="http://www.w3.org/2000/svg">
<path d="M32.5 28.9247C26.5169 28.9247 21.6669 33.7744 21.6669 39.7578C21.6669 45.7409 26.5169 50.5913 32.5 50.5913C38.4831 50.5913 43.3331 45.7409 43.3331 39.7578C43.3267 33.7775 38.4803 28.9311 32.5 28.9247ZM32.5 48.4243C27.7135 48.4243 23.8335 44.5443 23.8335 39.7578C23.8335 34.9713 27.7135 31.0913 32.5 31.0913C37.2865 31.0913 41.1665 34.9713 41.1665 39.7578C41.161 44.5416 37.2841 48.4192 32.5 48.4243Z" fill="#EF760D"/>
<path d="M32.5 27.8409C33.0982 27.8409 33.5834 27.3561 33.5834 26.7578V25.6744C33.5834 25.0765 33.0982 24.5913 32.5 24.5913C31.9017 24.5913 31.4165 25.0765 31.4165 25.6744V26.7578C31.4165 27.3561 31.9017 27.8409 32.5 27.8409Z" fill="#EF760D"/>
<path d="M41.6922 29.0327L40.9261 29.7988C40.4961 30.2145 40.4842 30.9005 40.8995 31.3305C41.3153 31.7606 42.0012 31.7725 42.4317 31.3571C42.4404 31.3488 42.4495 31.3396 42.4579 31.3305L43.2239 30.5644C43.6397 30.134 43.6278 29.4484 43.1973 29.0327C42.7776 28.6272 42.1119 28.6272 41.6922 29.0327Z" fill="#EF760D"/>
<path d="M46.5835 38.674H45.5C44.9017 38.674 44.4169 39.1595 44.4169 39.7578C44.4169 40.3561 44.9017 40.8413 45.5 40.8413H46.5835C47.1813 40.8413 47.6665 40.3561 47.6665 39.7578C47.6665 39.1595 47.1813 38.674 46.5835 38.674Z" fill="#EF760D"/>
<path d="M42.4579 48.1835C42.0278 47.7681 41.3415 47.78 40.9261 48.2105C40.521 48.6306 40.521 49.2959 40.9261 49.7157L41.6922 50.4818C42.1151 50.9047 42.8011 50.9051 43.2244 50.4821C43.6477 50.0592 43.6481 49.3733 43.2252 48.95L42.4579 48.1835Z" fill="#EF760D"/>
<path d="M32.5 51.6743C31.9017 51.6743 31.4165 52.1595 31.4165 52.7578V53.8409C31.4165 54.4395 31.9017 54.9247 32.5 54.9247C33.0982 54.9247 33.5834 54.4395 33.5834 53.8409V52.7578C33.5834 52.1595 33.0982 51.6743 32.5 51.6743Z" fill="#EF760D"/>
<path d="M22.5421 48.1835L21.7761 48.95C21.3527 49.3729 21.3523 50.0589 21.7757 50.4822C22.1986 50.9051 22.8849 50.9059 23.3078 50.483L24.0739 49.7165C24.4897 49.2865 24.4778 48.6009 24.0473 48.1851C23.6276 47.7797 22.9619 47.7797 22.5421 48.1851V48.1835Z" fill="#EF760D"/>
<path d="M19.5 38.674H18.4165C17.8179 38.674 17.3331 39.1595 17.3331 39.7578C17.3331 40.3561 17.8179 40.8413 18.4165 40.8413H19.5C20.0983 40.8413 20.5831 40.3561 20.5831 39.7578C20.5831 39.1595 20.0983 38.674 19.5 38.674Z" fill="#EF760D"/>
<path d="M22.5421 31.3317C22.9721 31.7471 23.6585 31.7352 24.0739 31.3051C24.4789 30.8854 24.4789 30.2193 24.0739 29.7999L23.3078 29.0342C22.8849 28.6105 22.1989 28.6105 21.7756 29.033C21.3523 29.4564 21.3519 30.1427 21.7748 30.5656L22.5421 31.3317Z" fill="#EF760D"/>
<path d="M61.75 27.8409C59.9552 27.8409 58.5 29.2961 58.5 31.0913V32.1743H49.2634C47.4126 28.1063 44.1515 24.8452 40.0835 22.9944V14.8413C40.0835 14.2426 39.5983 13.7578 39 13.7578H36.8331V7.25781H49.8331C51.6283 7.25781 53.0831 5.80261 53.0831 4.00781C53.0831 2.21301 51.6283 0.757812 49.8331 0.757812H15.1665C13.3717 0.757812 11.9169 2.21301 11.9169 4.00781C11.9169 5.80261 13.3717 7.25781 15.1665 7.25781H28.1669V13.7578H26C25.4017 13.7578 24.9165 14.243 24.9165 14.8413V22.9944C20.8481 24.8452 17.5874 28.1063 15.7362 32.1747H6.5V31.0913C6.5 29.2965 5.0448 27.8417 3.25 27.8417C1.4552 27.8417 0 29.2961 0 31.0913V48.4243C0 50.2195 1.4552 51.6743 3.25 51.6743C5.0448 51.6743 6.5 50.2195 6.5 48.4243V47.3413H15.7366C19.9078 56.5993 30.7945 60.7233 40.0529 56.5517C44.144 54.7085 47.4202 51.4323 49.2634 47.3413H58.5V48.4243C58.5 50.2195 59.9552 51.6743 61.75 51.6743C63.5448 51.6743 65 50.2195 65 48.4243V31.0913C65 29.2961 63.5448 27.8409 61.75 27.8409ZM14.0835 4.00781C14.0835 3.40955 14.5683 2.92435 15.1665 2.92435H49.8331C50.4317 2.92435 50.9165 3.40955 50.9165 4.00781C50.9165 4.60608 50.4317 5.09088 49.8331 5.09088H15.1665C14.5683 5.09088 14.0835 4.60608 14.0835 4.00781ZM30.3335 7.25781H34.6665V13.7578H30.3335V7.25781ZM27.0831 15.9243H37.9169V22.1569C34.3876 21.0695 30.6124 21.0695 27.0831 22.1569V15.9243ZM4.33307 48.4243C4.33307 49.023 3.84827 49.5078 3.25 49.5078C2.65173 49.5078 2.16653 49.023 2.16653 48.4243V31.0913C2.16653 30.4926 2.65173 30.0078 3.25 30.0078C3.84827 30.0078 4.33307 30.4926 4.33307 31.0913V48.4243ZM6.5 45.1747V34.3409H14.8991C13.8117 37.8702 13.8117 41.645 14.8991 45.1747H6.5ZM32.5 56.0078C23.5256 56.0078 16.25 48.7322 16.25 39.7578C16.25 30.783 23.5256 23.5078 32.5 23.5078C41.4744 23.5078 48.75 30.783 48.75 39.7578C48.7401 48.7282 41.4704 55.9979 32.5 56.0078ZM50.1009 45.1747C51.1883 41.645 51.1883 37.8702 50.1009 34.3409H58.5V45.1747H50.1009ZM62.8335 48.4243C62.8335 49.023 62.3483 49.5078 61.75 49.5078C61.1517 49.5078 60.6669 49.023 60.6669 48.4243V31.0913C60.6669 30.4926 61.1517 30.0078 61.75 30.0078C62.3483 30.0078 62.8335 30.4926 62.8335 31.0913V48.4243Z" fill="#EF760D"/>
</svg>
